<?xml version="1.0" encoding="UTF-8"?>
<svg width="146px" height="20px" viewBox="0 0 146 20" version="1.1" xmlns="http://www.w3.org/2000/svg" xmlns:xlink="http://www.w3.org/1999/xlink">
    <!-- Generator: Sketch 48.2 (47327) - http://www.bohemiancoding.com/sketch -->
    <title>Page 1</title>
    <desc>Created with Sketch.</desc>
    <defs>
        <polygon id="path-1" points="0 10.1002 0 20 19.799 20 19.799 0.2004 0 0.2004"></polygon>
    </defs>
    <g id="Phase1_Nav_InSitu_Mobile" stroke="none" stroke-width="1" fill="none" fill-rule="evenodd" transform="translate(-115.000000, -14.000000)">
        <g id="Page-1" transform="translate(115.000000, 13.000000)">
            <path d="M27.5025,2.6341 C27.5025,2.3851 27.7275,2.1611 27.9765,2.1611 L30.2905,2.1611 C30.5655,2.1611 30.7645,2.3851 30.7645,2.6341 L30.7645,9.2311 L38.8795,9.2311 L38.8795,2.6341 C38.8795,2.3851 39.0785,2.1611 39.3525,2.1611 L41.6435,2.1611 C41.8915,2.1611 42.1155,2.3851 42.1155,2.6341 L42.1155,19.1131 C42.1155,19.3631 41.8915,19.5871 41.6435,19.5871 L39.3525,19.5871 C39.0785,19.5871 38.8795,19.3631 38.8795,19.1131 L38.8795,12.2431 L30.7645,12.2431 L30.7645,19.1131 C30.7645,19.3631 30.5655,19.5871 30.2905,19.5871 L27.9765,19.5871 C27.7275,19.5871 27.5025,19.3631 27.5025,19.1131 L27.5025,2.6341 Z" id="Fill-1" fill="#333333"></path>
            <path d="M56.4049,16.5999 C59.5419,16.5999 62.1319,14.0359 62.1319,10.8989 C62.1319,7.7619 59.5419,5.1489 56.4049,5.1489 C53.2689,5.1489 50.7049,7.7619 50.7049,10.8989 C50.7049,14.0359 53.2689,16.5999 56.4049,16.5999 M56.4049,1.9119 C61.3839,1.9119 65.3669,5.9199 65.3669,10.8989 C65.3669,15.8769 61.3839,19.8359 56.4049,19.8359 C51.4259,19.8359 47.4679,15.8769 47.4679,10.8989 C47.4679,5.9199 51.4259,1.9119 56.4049,1.9119" id="Fill-3" fill="#333333"></path>
            <path d="M71.0035,2.8011 C71.0035,2.3961 71.0765,1.9171 71.6755,1.8851 C72.0985,1.8431 72.5895,2.4301 72.5895,2.4301 L82.4545,12.9151 L82.4805,12.9151 L82.4805,2.6341 C82.4805,2.3851 82.6785,2.1611 82.9525,2.1611 L85.2425,2.1611 C85.4915,2.1611 85.7155,2.3851 85.7155,2.6341 L85.7155,18.6541 C85.7155,19.3531 85.7325,19.8831 85.0425,19.8831 C84.6005,19.8831 84.4745,19.6461 84.1935,19.3661 C84.0185,19.1901 74.2395,8.4091 74.2395,8.4091 L74.2145,8.4091 L74.2145,19.1131 C74.2145,19.3631 74.0155,19.5871 73.7415,19.5871 L71.4765,19.5871 C71.2275,19.5871 71.0035,19.3631 71.0035,19.1131 L71.0035,2.8011 Z" id="Fill-5" fill="#333333"></path>
            <path d="M93.4195,2.6341 C93.4195,2.3851 93.6185,2.1611 93.8925,2.1611 L104.0235,2.1611 C104.2985,2.1611 104.4965,2.3851 104.4965,2.6341 L104.4965,4.6751 C104.4965,4.9241 104.2985,5.1491 104.0235,5.1491 L96.6555,5.1491 L96.6555,9.2311 L102.8045,9.2311 C103.0535,9.2311 103.2765,9.4551 103.2765,9.7041 L103.2765,11.7701 C103.2765,12.0441 103.0535,12.2431 102.8045,12.2431 L96.6555,12.2431 L96.6555,16.6001 L104.0235,16.6001 C104.2985,16.6001 104.4965,16.8231 104.4965,17.0721 L104.4965,19.1131 C104.4965,19.3631 104.2985,19.5871 104.0235,19.5871 L93.8925,19.5871 C93.6185,19.5871 93.4195,19.3631 93.4195,19.1131 L93.4195,2.6341 Z" id="Fill-7" fill="#333333"></path>
            <path d="M111.2535,17.1477 L112.1495,15.6037 C112.3485,15.2547 112.7725,15.2547 112.9955,15.4297 C113.1205,15.5037 115.1365,16.9727 116.7545,16.9727 C118.0495,16.9727 119.0205,16.1267 119.0205,15.0557 C119.0205,13.7867 117.9495,12.9157 115.8585,12.0687 C113.5185,11.1237 111.1785,9.6287 111.1785,6.6917 C111.1785,4.4757 112.8215,1.9127 116.7795,1.9127 C119.3185,1.9127 121.2605,3.2067 121.7585,3.5807 C122.0075,3.7297 122.0825,4.1527 121.9075,4.4017 L120.9615,5.8207 C120.7625,6.1197 120.3895,6.3187 120.0905,6.1197 C119.8915,5.9947 117.9995,4.7507 116.6305,4.7507 C115.2115,4.7507 114.4405,5.6957 114.4405,6.4927 C114.4405,7.6627 115.3605,8.4597 117.3775,9.2807 C119.7915,10.2517 122.5795,11.6957 122.5795,14.9067 C122.5795,17.4707 120.3645,19.8357 116.8545,19.8357 C113.7175,19.8357 111.8755,18.3677 111.3775,17.8937 C111.1535,17.6697 111.0285,17.5447 111.2535,17.1477" id="Fill-9" fill="#333333"></path>
            <path d="M131.9605,5.1487 L128.1515,5.1487 C127.8775,5.1487 127.6785,4.9237 127.6785,4.6747 L127.6785,2.6337 C127.6785,2.3847 127.8775,2.1617 128.1515,2.1617 L139.0295,2.1617 C139.3045,2.1617 139.5035,2.3847 139.5035,2.6337 L139.5035,4.6747 C139.5035,4.9237 139.3045,5.1487 139.0295,5.1487 L135.2215,5.1487 L135.2215,19.1137 C135.2215,19.3627 134.9975,19.5867 134.7485,19.5867 L132.4335,19.5867 C132.1845,19.5867 131.9605,19.3627 131.9605,19.1137 L131.9605,5.1487 Z" id="Fill-11" fill="#333333"></path>
            <path d="M16.2974,6.3772 C13.0804,6.3772 11.2054,8.0682 10.9784,10.5922 C11.1464,10.3682 11.3184,10.1512 11.5004,9.9402 C11.7814,9.6132 12.0814,9.3012 12.4004,9.0102 C12.7194,8.7202 13.0584,8.4512 13.4254,8.2252 C13.7894,7.9992 14.1864,7.8162 14.6024,7.7292 C14.1984,7.8632 13.8364,8.0872 13.5094,8.3462 C13.1814,8.6062 12.8844,8.9012 12.6104,9.2162 C12.3374,9.5312 12.0844,9.8642 11.8514,10.2092 C11.6504,10.5042 11.4624,10.8132 11.2934,11.1202 L12.7644,11.1202 C16.4254,11.1202 16.2974,8.8532 16.2974,6.3772" id="Fill-15" fill="#333333"></path>
            <path d="M7.1881,9.2161 C6.9151,8.9021 6.6191,8.6061 6.2901,8.3461 C5.9611,8.0871 5.6001,7.8631 5.1971,7.7291 C5.6131,7.8171 6.0081,7.9991 6.3751,8.2251 C6.7401,8.4511 7.0811,8.7201 7.3991,9.0101 C7.7171,9.3011 8.0161,9.6131 8.2981,9.9401 C8.4801,10.1511 8.6521,10.3681 8.8201,10.5911 C8.5931,8.0691 6.7171,6.3771 3.5011,6.3771 C3.5011,8.8531 3.3741,11.1201 7.0341,11.1201 L8.5051,11.1201 C8.3361,10.8131 8.1481,10.5041 7.9481,10.2091 C7.7131,9.8641 7.4611,9.5311 7.1881,9.2161" id="Fill-17" fill="#333333"></path>
            <path d="M15.0953,15.4222 C15.0953,13.5042 14.8823,12.0412 12.3573,12.0412 L11.2373,12.0412 C11.3723,12.2292 11.5183,12.4152 11.6723,12.5922 C11.8643,12.8152 12.0703,13.0262 12.2873,13.2272 C12.7223,13.6212 13.2113,13.9752 13.7823,14.1712 C13.1913,14.0492 12.6423,13.7532 12.1453,13.4042 C11.8963,13.2292 11.6563,13.0372 11.4283,12.8332 C11.2673,12.6892 11.1133,12.5372 10.9623,12.3802 C11.0453,14.0472 11.8123,15.4222 15.0953,15.4222" id="Fill-19" fill="#333333"></path>
            <path d="M8.3697,12.8333 C8.1417,13.0373 7.9027,13.2293 7.6537,13.4043 C7.1557,13.7533 6.6067,14.0493 6.0157,14.1713 C6.5857,13.9753 7.0747,13.6213 7.5107,13.2273 C7.7277,13.0263 7.9327,12.8143 8.1257,12.5923 C8.2797,12.4153 8.4257,12.2293 8.5607,12.0413 L7.4407,12.0413 C4.9167,12.0413 4.7027,13.5043 4.7027,15.4223 C7.9857,15.4223 8.7517,14.0473 8.8357,12.3803 C8.6837,12.5373 8.5297,12.6883 8.3697,12.8333" id="Fill-21" fill="#333333"></path>
            <path d="M10.8765,7.7356 C10.9265,7.6386 10.8885,7.5186 10.7905,7.4686 C10.6925,7.4206 10.5735,7.4586 10.5235,7.5556 L9.8995,8.7766 L9.2745,7.5556 C9.2255,7.4576 9.1055,7.4206 9.0085,7.4686 C8.9105,7.5186 8.8725,7.6386 8.9225,7.7356 C8.9225,7.7356 9.7385,9.3246 9.7425,9.3296 C9.6475,9.6876 9.5855,10.0466 9.5345,10.4046 C9.4675,10.9316 9.4355,11.4596 9.4355,11.9876 C9.4365,12.5146 9.4685,13.0426 9.5365,13.5696 C9.6095,14.0966 9.7065,14.6246 9.8995,15.1526 C10.0925,14.6246 10.1895,14.0966 10.2635,13.5696 C10.3305,13.0426 10.3615,12.5146 10.3625,11.9876 C10.3635,11.4596 10.3315,10.9316 10.2645,10.4046 C10.2135,10.0466 10.1505,9.6876 10.0555,9.3306 C10.0605,9.3256 10.8765,7.7356 10.8765,7.7356" id="Fill-23" fill="#333333"></path>
            <g id="Group-27" transform="translate(0.000000, 0.800000)">
                <mask id="mask-2" fill="white">
                    <use xlink:href="#path-1"></use>
                </mask>
                <g id="Clip-26"></g>
                <path d="M9.9,0.9474 C4.853,0.9474 0.748,5.0524 0.748,10.0994 C0.748,15.1464 4.853,19.2534 9.9,19.2534 C14.947,19.2534 19.052,15.1464 19.052,10.0994 C19.052,5.0524 14.947,0.9474 9.9,0.9474 M9.9,20.0004 C4.441,20.0004 0,15.5584 0,10.0994 C0,4.6404 4.441,0.2004 9.9,0.2004 C15.358,0.2004 19.799,4.6404 19.799,10.0994 C19.799,15.5584 15.358,20.0004 9.9,20.0004" id="Fill-25" fill="#333333" mask="url(#mask-2)"></path>
            </g>
            <path d="M143.856,3.5872 C144.088,3.5872 144.22,3.4652 144.22,3.2932 C144.22,3.1012 144.088,2.9992 143.856,2.9992 L143.42,2.9992 L143.42,3.5872 L143.856,3.5872 Z M143.077,2.6952 L143.886,2.6952 C144.281,2.6952 144.575,2.8882 144.575,3.2632 C144.575,3.5562 144.403,3.7382 144.16,3.8102 L144.635,4.4872 L144.22,4.4872 L143.795,3.8702 L143.42,3.8702 L143.42,4.4872 L143.077,4.4872 L143.077,2.6952 Z M145.324,3.6272 L145.324,3.6172 C145.324,2.7562 144.656,2.0482 143.765,2.0482 C142.884,2.0482 142.206,2.7672 142.206,3.6272 L142.206,3.6372 C142.206,4.4982 142.874,5.2062 143.765,5.2062 C144.645,5.2062 145.324,4.4872 145.324,3.6272 Z M142.003,3.6372 L142.003,3.6272 C142.003,2.6652 142.783,1.8562 143.765,1.8562 C144.756,1.8562 145.527,2.6552 145.527,3.6172 L145.527,3.6272 C145.527,4.5892 144.747,5.3992 143.765,5.3992 C142.773,5.3992 142.003,4.5992 142.003,3.6372 Z" id="Fill-28" fill="#333333"></path>
        </g>
    </g>
</svg>