<?xml version="1.0" encoding="utf-8"?>
<!-- Generator: Adobe Illustrator 23.0.3, SVG Export Plug-In . SVG Version: 6.00 Build 0)  -->
<svg version="1.1" id="Layer_1" xmlns="http://www.w3.org/2000/svg" xmlns:xlink="http://www.w3.org/1999/xlink" x="0px" y="0px"
	 viewBox="0 0 50 50" style="enable-background:new 0 0 50 50;" xml:space="preserve">
<style type="text/css">
	.st0{fill:#990000;}
</style>
<g>
	<g>
		<path class="st0" d="M25,1.5C12,1.5,1.5,12,1.5,25S12,48.5,25,48.5S48.5,38,48.5,25S38,1.5,25,1.5z M25,14.9
			c5.6,0,10.1,4.5,10.1,10.1h-1.3c0-4.9-4-8.9-8.9-8.9v-1.2H25z M25,18c3.8,0,7,3.1,7,7h-1.3c0-3.1-2.6-5.7-5.7-5.7V18z M25,21.2
			c2.1,0,3.8,1.7,3.8,3.8h-1.3c0-1.4-1.1-2.5-2.5-2.5V21.2z M37.4,33.7c-0.4,1.6-1,3.5-2.6,5.8l-0.2,0.3h-0.4
			c-1.3-0.1-8.2-0.8-15.7-8.3C11,23.9,10.3,17,10.2,15.7v-0.4l0.3-0.2c2.3-1.6,4.2-2.2,5.8-2.6l0.4-0.1l0.3,0.3
			c1.7,1.7,3.3,4.1,4.2,6.3l0.2,0.4L18.7,22c0.3,0.8,1.2,2.9,3.8,5.5s4.7,3.5,5.5,3.8l2.6-2.6l0.4,0.2c2.2,0.9,4.6,2.5,6.3,4.2
			l0.3,0.3L37.4,33.7z"/>
	</g>
</g>
</svg>
