<?xml version="1.0" encoding="utf-8"?>
<!-- Generator: Adobe Illustrator 23.0.3, SVG Export Plug-In . SVG Version: 6.00 Build 0)  -->
<svg version="1.1" id="Layer_1" xmlns="http://www.w3.org/2000/svg" xmlns:xlink="http://www.w3.org/1999/xlink" x="0px" y="0px"
	 viewBox="0 0 359.79 86.5" style="enable-background:new 0 0 359.79 86.5;" xml:space="preserve">
<style type="text/css">
	.st0{fill:#666766;}
	.st1{fill:#991B1E;}
</style>
<g>
	<polygon points="119.62,43.1 126.62,43.1 126.62,22.07 135.65,35.79 135.84,35.79 144.97,21.93 144.97,43.1 152.06,43.1 
		152.06,10.67 144.36,10.67 135.84,24.39 127.31,10.67 119.62,10.67 	"/>
	<polygon points="158.08,43.1 182.77,43.1 182.77,36.76 165.17,36.76 165.17,29.95 180.46,29.95 180.46,23.6 165.17,23.6 
		165.17,17.02 182.54,17.02 182.54,10.67 158.08,10.67 	"/>
	<path d="M208.36,31.52c4.12-1.53,6.95-4.82,6.95-10.05v-0.09c0-3.06-0.97-5.61-2.78-7.41c-2.13-2.13-5.33-3.29-9.45-3.29h-14.83
		V43.1h7.13V32.73h5.51h0.09l6.95,10.38h8.34L208.36,31.52z M208.08,21.84c0,2.73-1.99,4.59-5.47,4.59h-7.23v-9.31h7.09
		c3.47,0,5.61,1.58,5.61,4.63V21.84z"/>
	<path d="M235.76,43.66c6.25,0,9.96-2.22,13.3-5.79l-4.54-4.59c-2.55,2.32-4.82,3.8-8.53,3.8c-5.56,0-9.4-4.63-9.4-10.19V26.8
		c0-5.56,3.94-10.1,9.4-10.1c3.24,0,5.79,1.39,8.29,3.66l4.54-5.23c-3.01-2.97-6.67-5-12.79-5c-9.96,0-16.91,7.55-16.91,16.77v0.09
		C219.13,36.29,226.22,43.66,235.76,43.66"/>
	<path d="M267.27,43.61c8.71,0,14.22-4.82,14.22-14.64v-18.3h-7.14v18.58c0,5.14-2.64,7.78-7,7.78c-4.35,0-6.99-2.73-6.99-8.01
		V10.67h-7.14v18.53C253.23,38.75,258.56,43.61,267.27,43.61"/>
	<path d="M307.68,31.52c4.12-1.53,6.95-4.82,6.95-10.05v-0.09c0-3.06-0.97-5.61-2.78-7.41c-2.13-2.13-5.33-3.29-9.45-3.29h-14.82
		V43.1h7.13V32.73h5.51h0.09l6.95,10.38h8.34L307.68,31.52z M307.4,21.84c0,2.73-1.99,4.59-5.47,4.59h-7.23v-9.31h7.09
		c3.47,0,5.61,1.58,5.61,4.63V21.84z"/>
	<polygon points="328,43.1 335.14,43.1 335.14,30.18 347.6,10.67 339.49,10.67 331.62,23.69 323.88,10.67 315.54,10.67 328,30.32 	
		"/>
</g>
<g>
	<rect x="119.64" y="49.15" class="st0" width="4.69" height="26.68"/>
	<polygon class="st0" points="131.16,75.84 135.77,75.84 135.77,56.85 150.49,75.84 154.41,75.84 154.41,49.15 149.8,49.15 
		149.8,67.6 135.51,49.15 131.16,49.15 	"/>
	<path class="st0" d="M170.19,76.22c5.6,0,9.53-2.97,9.53-7.97v-0.08c0-4.42-2.94-6.44-8.58-7.81c-5.11-1.22-6.33-2.14-6.33-4.2
		v-0.07c0-1.75,1.6-3.17,4.35-3.17c2.44,0,4.84,0.95,7.24,2.75l2.52-3.54c-2.71-2.17-5.79-3.35-9.68-3.35
		c-5.3,0-9.11,3.16-9.11,7.74v0.08c0,4.92,3.2,6.59,8.88,7.97c4.95,1.14,6.02,2.17,6.02,4.08v0.08c0,2.02-1.83,3.36-4.73,3.36
		c-3.32,0-5.87-1.26-8.42-3.47l-2.82,3.36C162.26,74.81,166.11,76.22,170.19,76.22"/>
	<path class="st0" d="M195.77,76.25c6.98,0,11.47-4,11.47-11.97V49.15h-4.69v15.36c0,4.92-2.55,7.43-6.71,7.43
		c-4.19,0-6.75-2.67-6.75-7.63V49.15h-4.69v15.36C184.41,72.25,188.83,76.25,195.77,76.25"/>
	<path class="st0" d="M228.74,65.73c3.74-1.07,6.37-3.7,6.37-8.08v-0.08c0-2.32-0.8-4.31-2.21-5.76c-1.71-1.68-4.35-2.67-7.7-2.67
		H213.3v26.69h4.69v-9.3h5.79h0.08l6.56,9.3h5.53L228.74,65.73z M217.99,62.38v-8.96h6.83c3.47,0,5.53,1.56,5.53,4.42v0.08
		c0,2.71-2.13,4.46-5.49,4.46H217.99z"/>
	<path class="st0" d="M254.54,48.96h-4.35l-11.74,26.88h4.8l2.74-6.44h12.62l2.71,6.44h4.96L254.54,48.96z M247.71,65.24l4.58-10.67
		l4.61,10.67H247.71z"/>
	<polygon class="st0" points="270.21,75.84 274.82,75.84 274.82,56.85 289.53,75.84 293.46,75.84 293.46,49.15 288.85,49.15 
		288.85,67.6 274.55,49.15 270.21,49.15 	"/>
	<path class="st0" d="M312.14,76.29c4.99,0,8.04-1.83,10.83-4.73l-3.01-3.05c-2.29,2.13-4.38,3.47-7.66,3.47
		c-5.11,0-8.8-4.27-8.8-9.49v-0.08c0-5.22,3.7-9.42,8.8-9.42c3.05,0,5.34,1.33,7.47,3.31l3.01-3.47c-2.55-2.44-5.53-4.15-10.44-4.15
		c-8.08,0-13.76,6.21-13.76,13.8v0.08C298.57,70.23,304.37,76.29,312.14,76.29"/>
	<polygon class="st0" points="328,75.84 347.6,75.84 347.6,71.64 332.7,71.64 332.7,64.48 346.08,64.48 346.08,60.28 332.7,60.28 
		332.7,53.34 347.6,53.34 347.6,49.15 328,49.15 	"/>
</g>
<polygon class="st1" points="107.55,10.67 107.55,75.84 59,75.84 "/>
<polygon class="st1" points="12.5,75.84 47.34,75.84 104.36,10.67 "/>
</svg>
