<?xml version="1.0" encoding="utf-8"?>
<!-- Generator: Adobe Illustrator 23.0.3, SVG Export Plug-In . SVG Version: 6.00 Build 0)  -->
<svg version="1.1" id="Layer_1" xmlns="http://www.w3.org/2000/svg" xmlns:xlink="http://www.w3.org/1999/xlink" x="0px" y="0px"
	 viewBox="0 0 333.5 216" style="enable-background:new 0 0 333.5 216;" xml:space="preserve">
<style type="text/css">
	.st0{fill:#991B1E;}
	.st1{fill:#666766;}
</style>
<g>
	<polygon class="st0" points="325.24,8.88 325.24,99.94 200.68,99.94 	"/>
	<polygon class="st0" points="317.04,8.88 170.77,99.94 81.38,99.94 	"/>
</g>
<g>
	<polygon points="9.52,161.54 19.21,161.54 19.21,132.42 31.72,151.41 31.98,151.41 44.62,132.22 44.62,161.54 54.43,161.54 
		54.43,116.63 43.78,116.63 31.98,135.63 20.17,116.63 9.52,116.63 	"/>
	<polygon points="62.78,161.54 96.97,161.54 96.97,152.75 72.59,152.75 72.59,143.32 93.76,143.32 93.76,134.53 72.59,134.53 
		72.59,125.42 96.65,125.42 96.65,116.63 62.78,116.63 	"/>
	<g>
		<path d="M132.02,132.1c0,3.79-2.76,6.35-7.57,6.35h-10.01v-12.89h9.82c4.81,0,7.76,2.18,7.76,6.42V132.1z M142.02,131.58v-0.13
			c0-4.24-1.35-7.76-3.85-10.26c-2.95-2.95-7.38-4.56-13.09-4.56h-20.53v44.91h9.88v-14.37h7.63h0.13l9.62,14.37h11.55L132.4,145.5
			C138.11,143.39,142.02,138.83,142.02,131.58"/>
		<path d="M170.35,162.31c8.66,0,13.81-3.08,18.43-8.02l-6.29-6.35c-3.54,3.21-6.69,5.26-11.82,5.26c-7.7,0-13.02-6.42-13.02-14.11
			v-0.13c0-7.7,5.45-13.98,13.02-13.98c4.49,0,8.02,1.92,11.5,5.07l6.29-7.25c-4.17-4.11-9.25-6.93-17.72-6.93
			c-13.79,0-23.42,10.46-23.42,23.23v0.13C147.32,152.11,157.13,162.31,170.35,162.31"/>
		<path d="M213.99,162.25c12.06,0,19.7-6.67,19.7-20.27v-25.34h-9.88v25.73c0,7.12-3.66,10.78-9.69,10.78
			c-6.03,0-9.69-3.78-9.69-11.1v-25.41h-9.88v25.67C194.55,155.51,201.93,162.25,213.99,162.25"/>
		<path d="M269.57,132.1c0,3.79-2.76,6.35-7.57,6.35h-10.01v-12.89h9.82c4.81,0,7.76,2.18,7.76,6.42V132.1z M279.58,131.58v-0.13
			c0-4.24-1.35-7.76-3.85-10.26c-2.95-2.95-7.38-4.56-13.09-4.56h-20.53v44.91h9.88v-14.37h7.63h0.13l9.62,14.37h11.55l-10.97-16.04
			C275.66,143.39,279.58,138.83,279.58,131.58"/>
	</g>
	<polygon points="298.1,161.54 307.98,161.54 307.98,143.64 325.24,116.63 314.01,116.63 303.1,134.66 292.39,116.63 280.84,116.63 
		298.1,143.84 	"/>
</g>
<g>
	<rect x="9.55" y="169.92" class="st1" width="6.49" height="36.95"/>
	<polygon class="st1" points="25.5,206.87 31.88,206.87 31.88,180.58 52.26,206.87 57.7,206.87 57.7,169.92 51.31,169.92 
		51.31,195.46 31.51,169.92 25.5,169.92 	"/>
	<g>
		<path class="st1" d="M79.55,207.4c7.76,0,13.2-4.12,13.2-11.03v-0.11c0-6.12-4.06-8.92-11.88-10.82
			c-7.07-1.69-8.76-2.96-8.76-5.81v-0.1c0-2.43,2.22-4.38,6.02-4.38c3.38,0,6.7,1.32,10.03,3.8l3.49-4.91
			c-3.75-3.01-8.02-4.64-13.41-4.64c-7.34,0-12.62,4.38-12.62,10.71v0.11c0,6.81,4.43,9.13,12.3,11.03
			c6.86,1.58,8.34,3.01,8.34,5.65v0.1c0,2.8-2.53,4.65-6.55,4.65c-4.59,0-8.13-1.74-11.67-4.8l-3.91,4.65
			C68.57,205.44,73.9,207.4,79.55,207.4"/>
		<path class="st1" d="M114.96,207.45c9.66,0,15.89-5.54,15.89-16.58v-20.96h-6.49v21.27c0,6.81-3.54,10.29-9.29,10.29
			c-5.81,0-9.34-3.69-9.34-10.56v-21.01h-6.49v21.27C99.23,201.9,105.36,207.45,114.96,207.45"/>
		<path class="st1" d="M162.85,182.06c0,3.75-2.96,6.17-7.6,6.17h-9.51v-12.41h9.45c4.8,0,7.65,2.16,7.65,6.12V182.06z
			 M169.44,181.69v-0.11c0-3.22-1.11-5.96-3.06-7.97c-2.37-2.32-6.02-3.7-10.66-3.7h-16.47v36.95h6.49v-12.88h8.02h0.11l9.08,12.88
			h7.65l-9.98-13.99C165.8,191.4,169.44,187.76,169.44,181.69"/>
	</g>
	<path class="st1" d="M199.64,192.19h-12.72l6.34-14.78L199.64,192.19z M212.62,206.87l-16.26-37.22h-6.02l-16.27,37.22h6.65
		l3.82-8.92h17.47l3.75,8.92H212.62z"/>
	<polygon class="st1" points="218.06,206.87 224.45,206.87 224.45,180.58 244.83,206.87 250.26,206.87 250.26,169.92 243.88,169.92 
		243.88,195.46 224.08,169.92 218.06,169.92 	"/>
	<g>
		<path class="st1" d="M276.13,207.5c6.91,0,11.14-2.53,14.99-6.55l-4.17-4.22c-3.17,2.95-6.07,4.8-10.61,4.8
			c-7.07,0-12.19-5.91-12.19-13.14v-0.11c0-7.23,5.12-13.04,12.19-13.04c4.22,0,7.39,1.85,10.35,4.59l4.17-4.8
			c-3.54-3.38-7.65-5.75-14.46-5.75c-11.19,0-19.06,8.6-19.06,19.11v0.1C257.34,199.11,265.37,207.5,276.13,207.5"/>
	</g>
	<polygon class="st1" points="298.1,206.87 325.24,206.87 325.24,201.06 304.6,201.06 304.6,191.14 323.13,191.14 323.13,185.33 
		304.6,185.33 304.6,175.72 325.24,175.72 325.24,169.92 298.1,169.92 	"/>
</g>
</svg>
